{"title":"Staci Silverstone - Teenagers These Days","uid":11146338,"size":548746902,"categoryP":"porn","categoryS":"movies","magnet":"?xt=urn:btih:fc297f3159e0cf8ed9d2ddec3153a0a78e79dde0&amp;dn=Staci+Silverstone+-+Teenagers+These+Days&amp;tr=udp%3A%2F%2Ftracker.openbittorrent.com%3A80&amp;tr=udp%3A%2F%2Fopen.demonii.com%3A1337&amp;tr=udp%3A%2F%2Ftracker.coppersurfer.tk%3A6969&amp;tr=udp%3A%2F%2Fexodus.desync.com%3A6969","seeders":3,"leechers":3,"uploader":"DavidL0ng","files":-1,"time":1412266708,"description":"screens;\n &lt;a href=&quot;\nhttp://bayimg.com/IAaciaagm&quot; rel=&quot;nofollow&quot; target=&quot;_NEW&quot;&gt;\nhttp://bayimg.com/IAaciaagm&lt;/a&gt;\n\nVideo\nID                                       : 0\nFormat                                   : MPEG-4 Visual\nFormat profile                           : Simple@L1\nFormat settings, BVOP                    : No\nFormat settings, QPel                    : No\nFormat settings, GMC                     : No warppoints\nFormat settings, Matrix                  : Default (H.263)\nCodec ID                                 : DX50\nCodec ID/Hint                            : DivX 5\nDuration                                 : 27mn 44s\nBit rate                                 : 2 369 Kbps\nWidth                                    : 720 pixels\nHeight                                   : 394 pixels\nDisplay aspect ratio                     : 1.85:1\nFrame rate                               : 29.970 fps\nColor space                              : YUV\nChroma subsampling                       : 4:2:0\nBit depth                                : 8 bits\nScan type                                : Interlaced\nScan order                               : Top Field First\nCompression mode                         : Lossy\nBits/(Pixel*Frame)                       : 0.279\nStream size                              : 470 MiB (90%)\nWriting library                          : Lavc52.72.2\n\nAudio\nID                                       : 1\nFormat                                   : MPEG Audio\nFormat version                           : Version 1\nFormat profile                           : Layer 3\nMode                                     : Joint stereo\nMode extension                           : MS Stereo\nCodec ID                                 : 55\nCodec ID/Hint                            : MP3\nDuration                                 : 27mn 44s\nBit rate mode                            : Constant\nBit rate                                 : 256 Kbps\nChannel(s)                               : 2 channels\nSampling rate                            : 44.1 KHz\nCompression mode                         : Lossy\nStream size                              : 50.8 MiB (10%)\nAlignment                                : Aligned on interleaves\nInterleave, duration                     : 26 ms (0.78 video frame)\nInterleave, preload duration             : 809 ms\nWriting library                          : LAME3.98.4\n","torrent":{"xt":"urn:btih:fc297f3159e0cf8ed9d2ddec3153a0a78e79dde0","amp;dn":"Staci+Silverstone+-+Teenagers+These+Days","amp;tr":["udp%3A%2F%2Ftracker.openbittorrent.com%3A80","udp%3A%2F%2Fopen.demonii.com%3A1337","udp%3A%2F%2Ftracker.coppersurfer.tk%3A6969","udp%3A%2F%2Fexodus.desync.com%3A6969"],"infoHash":"fc297f3159e0cf8ed9d2ddec3153a0a78e79dde0","infoHashBuffer":{"type":"Buffer","data":[252,41,127,49,89,224,207,142,217,210,221,236,49,83,160,167,142,121,221,224]},"announce":[],"urlList":[]}}